# xmcd
#
# Track frame offsets:
#	183
#	12975
#	31090
#	48165
#	66218
#	79608
#	100510
#	115845
#	131265
#	148083
#
# Disc length: 2143 seconds
# Revision: 0
# Processed by: cddbd v1.5.2PL0 Copyright (c) Steve Scherf et al.
# Submitted via: dBpowerAMP V12.0
#
DISCID=74085d0a
DTITLE=Ray Stevens,AKAHaroldRayRagsdale,Clarksdale,GA - Classic Ray Stevens
DYEAR=1993
DGENRE=Comedy
TTITLE0=IfTenPercentIsGoodEnoughForJesus{ItOughtaBeEnoughForUncleSam}
TTITLE1=HigherEducationOfOld Blue,The
TTITLE2=Bricklayer'sSong,The
TTITLE3=LittleLeague
TTITLE4=Meanwhile
TTITLE5=SuperCop
TTITLE6=IfYouAndYo'FolksLikeMeAndMyFolks
TTITLE7=All-AmericanTwoWeekSummerFamilyVacation,The
TTITLE8=BalladOfJakeMcClusky,The
TTITLE9=MotelSong,The
EXTD=
EXTT0=
EXTT1=
EXTT2=
EXTT3=
EXTT4=
EXTT5=
EXTT6=
EXTT7=
EXTT8=
EXTT9=
PLAYORDER=
